<svg width="283" height="64" viewBox="0 0 283 64" fill="none" xmlns="http://www.w3.org/2000/svg">
 <path d="m1054.8 158.4c20.398 32.398-68.398 73.199-75.602 75.602 7.1992-2.3984 96-32.398 99.602-25.199 13.199 31.199-56.398 54-82.801 62.398 21.602-6 72-18 73.199-10.801 8.3984 33.602-61.199 50.398-68.398 51.602 3.6016 0 27.602-1.1992 28.801 7.1992 2.3984 25.199-36 40.801-36 40.801s9.6016 4.8008 7.1992 12c-2.3984 7.1992-28.801 43.199-28.801 43.199s4.8008 2.3984 1.1992 10.801c-3.6016 8.3984-27.602 34.801-27.602 34.801s-18 31.199-22.801 39.602c-4.8008 8.3984-55.199 63.602-66 81.602s-68.398 116.4-64.801 128.4c4.8008 10.801 37.199 36 50.398 49.199 13.199 13.199 87.602 55.199 103.2 69.602 27.602 27.602-15.602 72-30 86.398-15.602 14.398-60 56.398-87.602 28.801-14.398-14.398-56.398-90-69.602-103.2-13.199-13.199-38.398-45.602-49.199-50.398-10.801-4.8008-110.4 54-128.4 64.801s-73.199 61.199-81.602 66c-8.3984 4.8008-39.602 24-39.602 24s-26.398 25.199-34.801 27.602c-8.3984 3.6016-10.801-1.1992-10.801-1.1992s-36 26.398-43.199 28.801c-7.1992 2.3984-12-7.1992-12-7.1992s-15.602 38.398-40.801 36c-8.3984-1.1992-7.1992-25.199-7.1992-28.801-1.1992 6-18 75.602-51.602 68.398-5.9883-1.207 4.8125-51.605 10.812-73.207-7.1992 26.398-30 96-62.398 82.801-7.1992-2.3984 22.801-92.398 25.199-99.602-3.6016 7.1992-44.398 97.199-75.602 75.602-6-3.6016 30-73.199 37.199-87.602-8.3984 14.398-46.801 78-70.801 54-7.1992-7.1992 52.801-98.398 52.801-98.398s-52.801 44.398-56.398 31.199c-1.1992-6 75.602-108 75.602-108s-37.199 25.199-38.398 19.199 30-42 45.602-57.602c15.602-15.602 110.4-100.8 129.6-117.6 19.199-16.801 28.801-25.199 62.398-50.398 33.602-25.199 94.801-56.398 94.801-56.398s-7.1992-37.199-13.199-45.602c-6-8.3984-25.199-21.602-34.801-38.398-9.6055-16.801-9.6055-45.598-9.6055-45.598s-32.398-43.199-26.398-49.199 49.199 26.398 49.199 26.398 28.801 0 45.602 9.6016c16.801 9.6016 30 27.602 38.398 34.801 8.3984 6 45.602 13.199 45.602 13.199s31.199-60 56.398-94.801c25.199-33.602 33.602-43.199 50.398-62.398 16.801-19.199 102-114 117.6-129.6 15.602-15.602 50.398-46.801 57.602-45.602 6 1.1992-19.199 38.398-19.199 38.398-0.003906 0 100.8-75.598 106.8-74.398 13.199 3.6016-31.199 56.398-31.199 56.398s92.398-58.801 98.398-52.801c24 24-39.602 62.398-54 70.801 15.602-7.1992 84-43.199 87.602-36z"/>
</svg>
</svg>